HIERARCHY
ROOT hip
{
  OFFSET 0 90.174 2.4664
  CHANNELS 6 Xposition Yposition Zposition Zrotation Xrotation Yrotation
  JOINT abdomen
  {
    OFFSET 0 -1.186 -1.5018
    CHANNELS 6 Xposition Yposition Zposition Zrotation Xrotation Yrotation
    JOINT abdomen2
    {
      OFFSET 0 9.964 0.2134
      CHANNELS 6 Xposition Yposition Zposition Zrotation Xrotation Yrotation
      JOINT chest
      {
        OFFSET 0 13.134 -3.2573
        CHANNELS 6 Xposition Yposition Zposition Zrotation Xrotation Yrotation
        JOINT neck
        {
          OFFSET 0 20.686 -1.6905
          CHANNELS 6 Xposition Yposition Zposition Zrotation Xrotation Yrotation
          JOINT head
          {
            OFFSET 0 7.238 -0.1237
            CHANNELS 6 Xposition Yposition Zposition Zrotation Xrotation Yrotation
            End Site
            {
              OFFSET 0 0 0
            }
          }
        }
        JOINT lCollar
        {
          OFFSET 1.7069 20.075 5.0056
          CHANNELS 6 Xposition Yposition Zposition Zrotation Xrotation Yrotation
          JOINT lShldr
          {
            OFFSET 13.6458 -0.047 -4.849
            CHANNELS 6 Xposition Yposition Zposition Zrotation Xrotation Yrotation
            JOINT lForeArm
            {
              OFFSET 28.3255 -0.9759 2.2888
              CHANNELS 6 Xposition Yposition Zposition Zrotation Xrotation Yrotation
              JOINT lHand
              {
                OFFSET 22.1583 -0.53 10.8316
                CHANNELS 6 Xposition Yposition Zposition Zrotation Xrotation Yrotation
                JOINT lThumb1
                {
                  OFFSET 0.786 0.112 2.5817
                  CHANNELS 6 Xposition Yposition Zposition Zrotation Xrotation Yrotation
                  JOINT lThumb2
                  {
                    OFFSET 0.3601 -0.878 4.2331
                    CHANNELS 6 Xposition Yposition Zposition Zrotation Xrotation Yrotation
                    JOINT lThumb2_End
                    {
                      OFFSET 1.8127 -1.216 2.2227
                      CHANNELS 6 Xposition Yposition Zposition Zrotation Xrotation Yrotation
                      End Site
                      {
                        OFFSET 0.0181 -0.0122 0.0222
                      }
                    }
                  }
                }
                JOINT lCarpal1
                {
                  OFFSET 0.9571 1.114 1.7695
                  CHANNELS 6 Xposition Yposition Zposition Zrotation Xrotation Yrotation
                  JOINT lIndex1
                  {
                    OFFSET 4.1246 0.487 4.1451
                    CHANNELS 6 Xposition Yposition Zposition Zrotation Xrotation Yrotation
                    JOINT lIndex2
                    {
                      OFFSET 3.4052 -1.454 2.7682
                      CHANNELS 6 Xposition Yposition Zposition Zrotation Xrotation Yrotation
                      JOINT lIndex2_End
                      {
                        OFFSET 1.4531 -1.795 1.2713
                        CHANNELS 6 Xposition Yposition Zposition Zrotation Xrotation Yrotation
                        End Site
                        {
                          OFFSET 0.0145 -0.0179 0.0127
                        }
                      }
                    }
                  }
                  JOINT lMid1
                  {
                    OFFSET 5.6954 0.21 2.1184
                    CHANNELS 6 Xposition Yposition Zposition Zrotation Xrotation Yrotation
                    JOINT lMid2
                    {
                      OFFSET 3.9766 -1.54 2.3863
                      CHANNELS 6 Xposition Yposition Zposition Zrotation Xrotation Yrotation
                      JOINT lMid2_End
                      {
                        OFFSET 1.4042 -1.926 1.125
                        CHANNELS 6 Xposition Yposition Zposition Zrotation Xrotation Yrotation
                        End Site
                        {
                          OFFSET 0.014 -0.0193 0.0113
                        }
                      }
                    }
                  }
                }
                JOINT lCarpal2
                {
                  OFFSET 2.0956 0.66 -0.3894
                  CHANNELS 6 Xposition Yposition Zposition Zrotation Xrotation Yrotation
                  JOINT lRing1
                  {
                    OFFSET 5.0395 -0.09 2.4971
                    CHANNELS 6 Xposition Yposition Zposition Zrotation Xrotation Yrotation
                    JOINT lRing2
                    {
                      OFFSET 3.7921 -1.552 1.4806
                      CHANNELS 6 Xposition Yposition Zposition Zrotation Xrotation Yrotation
                      JOINT lRing2_End
                      {
                        OFFSET 1.4655 -1.808 0.9609
                        CHANNELS 6 Xposition Yposition Zposition Zrotation Xrotation Yrotation
                        End Site
                        {
                          OFFSET 0.0147 -0.0181 0.0096
                        }
                      }
                    }
                  }
                  JOINT lPinky1
                  {
                    OFFSET 4.9141 -1.269 0.3591
                    CHANNELS 6 Xposition Yposition Zposition Zrotation Xrotation Yrotation
                    JOINT lPinky2
                    {
                      OFFSET 3.1477 -1.685 0.8462
                      CHANNELS 6 Xposition Yposition Zposition Zrotation Xrotation Yrotation
                      JOINT lPinky2_End
                      {
                        OFFSET 0.8055 -1.585 0.7955
                        CHANNELS 6 Xposition Yposition Zposition Zrotation Xrotation Yrotation
                        End Site
                        {
                          OFFSET 0.0081 -0.0158 0.008
                        }
                      }
                    }
                  }
                }
              }
            }
          }
        }
        JOINT rCollar
        {
          OFFSET -1.7069 20.075 5.0056
          CHANNELS 6 Xposition Yposition Zposition Zrotation Xrotation Yrotation
          JOINT rShldr
          {
            OFFSET -13.6458 -0.047 -4.849
            CHANNELS 6 Xposition Yposition Zposition Zrotation Xrotation Yrotation
            JOINT rForeArm
            {
              OFFSET -28.3255 -0.9759 2.2888
              CHANNELS 6 Xposition Yposition Zposition Zrotation Xrotation Yrotation
              JOINT rHand
              {
                OFFSET -22.1583 -0.53 10.8316
                CHANNELS 6 Xposition Yposition Zposition Zrotation Xrotation Yrotation
                JOINT rThumb1
                {
                  OFFSET -0.786 0.112 2.5817
                  CHANNELS 6 Xposition Yposition Zposition Zrotation Xrotation Yrotation
                  JOINT rThumb2
                  {
                    OFFSET -0.3601 -0.878 4.2331
                    CHANNELS 6 Xposition Yposition Zposition Zrotation Xrotation Yrotation
                    JOINT rThumb2_End
                    {
                      OFFSET -1.8127 -1.216 2.2227
                      CHANNELS 6 Xposition Yposition Zposition Zrotation Xrotation Yrotation
                      End Site
                      {
                        OFFSET -0.0181 -0.0122 0.0222
                      }
                    }
                  }
                }
                JOINT rCarpal1
                {
                  OFFSET -0.9571 1.114 1.7695
                  CHANNELS 6 Xposition Yposition Zposition Zrotation Xrotation Yrotation
                  JOINT rIndex1
                  {
                    OFFSET -4.1246 0.487 4.1451
                    CHANNELS 6 Xposition Yposition Zposition Zrotation Xrotation Yrotation
                    JOINT rIndex2
                    {
                      OFFSET -3.4052 -1.454 2.7682
                      CHANNELS 6 Xposition Yposition Zposition Zrotation Xrotation Yrotation
                      JOINT rIndex2_End
                      {
                        OFFSET -1.4531 -1.795 1.2713
                        CHANNELS 6 Xposition Yposition Zposition Zrotation Xrotation Yrotation
                        End Site
                        {
                          OFFSET -0.0145 -0.018 0.0127
                        }
                      }
                    }
                  }
                  JOINT rMid1
                  {
                    OFFSET -5.6954 0.21 2.1184
                    CHANNELS 6 Xposition Yposition Zposition Zrotation Xrotation Yrotation
                    JOINT rMid2
                    {
                      OFFSET -3.9766 -1.54 2.3863
                      CHANNELS 6 Xposition Yposition Zposition Zrotation Xrotation Yrotation
                      JOINT rMid2_End
                      {
                        OFFSET -1.4042 -1.926 1.125
                        CHANNELS 6 Xposition Yposition Zposition Zrotation Xrotation Yrotation
                        End Site
                        {
                          OFFSET -0.014 -0.0193 0.0113
                        }
                      }
                    }
                  }
                }
                JOINT rCarpal2
                {
                  OFFSET -2.0956 0.66 -0.3894
                  CHANNELS 6 Xposition Yposition Zposition Zrotation Xrotation Yrotation
                  JOINT rRing1
                  {
                    OFFSET -5.0395 -0.09 2.4971
                    CHANNELS 6 Xposition Yposition Zposition Zrotation Xrotation Yrotation
                    JOINT rRing2
                    {
                      OFFSET -3.7921 -1.552 1.4806
                      CHANNELS 6 Xposition Yposition Zposition Zrotation Xrotation Yrotation
                      JOINT rRing2_End
                      {
                        OFFSET -1.4655 -1.808 0.9609
                        CHANNELS 6 Xposition Yposition Zposition Zrotation Xrotation Yrotation
                        End Site
                        {
                          OFFSET -0.0147 -0.0181 0.0096
                        }
                      }
                    }
                  }
                  JOINT rPinky1
                  {
                    OFFSET -4.9141 -1.269 0.3592
                    CHANNELS 6 Xposition Yposition Zposition Zrotation Xrotation Yrotation
                    JOINT rPinky2
                    {
                      OFFSET -3.1477 -1.685 0.8462
                      CHANNELS 6 Xposition Yposition Zposition Zrotation Xrotation Yrotation
                      JOINT rPinky2_End
                      {
                        OFFSET -0.8055 -1.585 0.7955
                        CHANNELS 6 Xposition Yposition Zposition Zrotation Xrotation Yrotation
                        End Site
                        {
                          OFFSET -0.0081 -0.0158 0.008
                        }
                      }
                    }
                  }
                }
              }
            }
          }
        }
      }
    }
  }
  JOINT lThigh
  {
    OFFSET 8.367 -8.2066 0.5982
    CHANNELS 6 Xposition Yposition Zposition Zrotation Xrotation Yrotation
    JOINT lShin
    {
      OFFSET 2.1923 -43.463 -0.4932
      CHANNELS 6 Xposition Yposition Zposition Zrotation Xrotation Yrotation
      JOINT lFoot
      {
        OFFSET 0.7333 -45.8593 -2.6451
        CHANNELS 6 Xposition Yposition Zposition Zrotation Xrotation Yrotation
        End Site
        {
          OFFSET 2.6618 -4.2699 12.3931
        }
      }
    }
  }
  JOINT rThigh
  {
    OFFSET -8.367 -8.2066 0.5982
    CHANNELS 6 Xposition Yposition Zposition Zrotation Xrotation Yrotation
    JOINT rShin
    {
      OFFSET -2.1923 -43.463 -0.4931
      CHANNELS 6 Xposition Yposition Zposition Zrotation Xrotation Yrotation
      JOINT rFoot
      {
        OFFSET -0.7333 -45.8593 -2.6451
        CHANNELS 6 Xposition Yposition Zposition Zrotation Xrotation Yrotation
        End Site
        {
          OFFSET -2.6618 -4.2699 12.3931
        }
      }
    }
  }
}
MOTION
Frames:	4
Frame Time:	0.0333333
0 90.174 2.4664 0 0 -0 0 -1.186 -1.5018 0 0 -0 0 9.964 0.2134 0 0 -0 0 13.134 -3.2573 0 0 -0 0 20.686 -1.6905 0 0 -0 0 7.238 -0.1237 0 0 -0 1.7069 20.075 5.0056 0 0 -0 13.6458 -0.047 -4.849 1.66051 0.0835086 5.75766 28.3255 -0.9759 2.2888 -0.0175111 0.895433 15.7816 22.1583 -0.53 10.8316 7.95139e-016 -1.98785e-016 -0 0.786 0.112 2.5817 5.46658e-016 -3.97569e-016 -0 0.3601 -0.878 4.2331 5.96354e-016 0 -0 1.8127 -1.216 2.2227 3.97569e-016 1.98785e-016 9.54166e-015 0.9571 1.114 1.7695 1.49089e-016 -3.97569e-016 -0 4.1246 0.487 4.1451 6.4605e-016 0 3.18055e-015 3.4052 -1.454 2.7682 5.96354e-016 0 3.18055e-015 1.4531 -1.795 1.2713 8.94531e-016 -1.98785e-016 6.36111e-015 5.6954 0.21 2.1184 6.4605e-016 0 3.18055e-015 3.9766 -1.54 2.3863 5.96354e-016 0 3.18055e-015 1.4042 -1.926 1.125 8.94531e-016 -1.98785e-016 6.36111e-015 2.0956 0.66 -0.3894 1.49089e-016 -3.97569e-016 -0 5.0395 -0.09 2.4971 6.4605e-016 0 3.18055e-015 3.7921 -1.552 1.4806 5.96354e-016 0 3.18055e-015 1.4655 -1.808 0.9609 8.94531e-016 -1.98785e-016 6.36111e-015 4.9141 -1.269 0.3591 6.4605e-016 0 3.18055e-015 3.1477 -1.685 0.8462 5.96354e-016 0 3.18055e-015 0.8055 -1.585 0.7955 8.94531e-016 -1.98785e-016 6.36111e-015 -1.7069 20.075 5.0056 0 0 -0 -13.6458 -0.047 -4.849 -1.4496 0.0636048 -5.0245 -28.3255 -0.9759 2.2888 -1.74811 1.20616 -16.8394 -22.1583 -0.53 10.8316 -1.19271e-015 1.98785e-016 -3.18055e-015 -0.786 0.112 2.5817 -3.97569e-016 1.98785e-016 -3.18055e-015 -0.3601 -0.878 4.2331 -2.98177e-016 1.98785e-016 -3.18055e-015 -1.8127 -1.216 2.2227 -2.98177e-016 3.97569e-016 -0 -0.9571 1.114 1.7695 4.96962e-016 0 -6.36111e-015 -4.1246 0.487 4.1451 -9.93923e-017 3.97569e-016 -0 -3.4052 -1.454 2.7682 -8.94531e-016 5.96354e-016 -0 -1.4531 -1.795 1.2713 -3.97569e-016 3.97569e-016 -0 -5.6954 0.21 2.1184 -9.93923e-017 3.97569e-016 -0 -3.9766 -1.54 2.3863 -8.94531e-016 5.96354e-016 -0 -1.4042 -1.926 1.125 -3.97569e-016 3.97569e-016 -0 -2.0956 0.66 -0.3894 4.96962e-016 0 -6.36111e-015 -5.0395 -0.09 2.4971 -9.93923e-017 3.97569e-016 -0 -3.7921 -1.552 1.4806 -8.94531e-016 5.96354e-016 -0 -1.4655 -1.808 0.9609 -3.97569e-016 3.97569e-016 -0 -4.9141 -1.269 0.3592 -9.93923e-017 3.97569e-016 -0 -3.1477 -1.685 0.8462 -8.94531e-016 5.96354e-016 -0 -0.8055 -1.585 0.7955 -3.97569e-016 3.97569e-016 -0 8.367 -8.2066 0.5982 -4.66115 -1.03232 0.120763 2.1923 -43.463 -0.4932 0.00990601 1.55097 0.177175 0.7333 -45.8593 -2.6451 4.65196 -0.54114 -0.255042 -8.367 -8.2066 0.5982 4.66115 -1.03222 -0.120763 -2.1923 -43.463 -0.4931 -0.00990459 1.5509 -0.177176 -0.7333 -45.8593 -2.6451 -4.65196 -0.541171 0.255041 
0.000194485 79.2749 -50.2008 -0 -69.0033 -0 0 -1.186 -1.5018 -0.36926 16.938 -0.0309706 5.55112e-017 9.964 0.2134 -0.783858 33.8758 0.0629191 2.22045e-016 13.134 -3.2573 -0.783858 33.8758 0.0629186 0 20.686 -1.6905 4.98641e-006 -0.788567 1.92063e-006 0 7.238 -0.1237 4.52803e-008 -0.715169 -3.15231e-008 1.7069 20.075 5.0056 -8.00266 -0.194473 -0.00133433 13.6458 -0.047 -4.849 7.06829 47.2838 -1.95975 28.3255 -0.9759 2.2888 0.0794866 0.658822 7.78171 22.1583 -0.53 10.8316 -6.51219 2.57104 0.0273115 0.786 0.112 2.5817 2.37003e-007 -3.70365e-006 -3.79675e-007 0.3601 -0.878 4.2331 2.38542e-015 0 3.97569e-016 1.8127 -1.216 2.2227 -3.31323e-007 -3.78663e-006 1.28215e-006 0.9571 1.114 1.7695 -7.95139e-016 0 -3.97569e-016 4.1246 0.487 4.1451 2.37003e-007 -3.70365e-006 -3.79675e-007 3.4052 -1.454 2.7682 2.38542e-015 0 3.97569e-016 1.4531 -1.795 1.2713 -3.31323e-007 -3.78663e-006 1.28215e-006 5.6954 0.21 2.1184 2.37003e-007 -3.70365e-006 -3.79675e-007 3.9766 -1.54 2.3863 2.38542e-015 0 3.97569e-016 1.4042 -1.926 1.125 -3.31323e-007 -3.78663e-006 1.28215e-006 2.0956 0.66 -0.3894 -7.95139e-016 0 -3.97569e-016 5.0395 -0.09 2.4971 2.37003e-007 -3.70365e-006 -3.79675e-007 3.7921 -1.552 1.4806 2.38542e-015 0 3.97569e-016 1.4655 -1.808 0.9609 -3.31323e-007 -3.78663e-006 1.28215e-006 4.9141 -1.269 0.3591 2.37003e-007 -3.70365e-006 -3.79675e-007 3.1477 -1.685 0.8462 2.38542e-015 0 3.97569e-016 0.8055 -1.585 0.7955 -3.31323e-007 -3.78663e-006 1.28215e-006 -1.7069 20.075 5.0056 7.99915 -0.194717 -0.00216005 -13.6458 -0.047 -4.849 -6.75886 47.292 2.46122 -28.3255 -0.9759 2.2888 -1.87581 0.750316 -8.85204 -22.1583 -0.53 10.8316 6.49223 2.60878 0.0254037 -0.786 0.112 2.5817 -5.08241e-007 -1.56611e-007 -2.35273e-006 -0.3601 -0.878 4.2331 -8.7935e-007 -2.23018e-006 -2.44402e-006 -1.8127 -1.216 2.2227 8.32231e-007 2.06321e-006 -6.23956e-007 -0.9571 1.114 1.7695 -6.62086e-032 -3.18055e-015 -1.19271e-015 -4.1246 0.487 4.1451 -5.08241e-007 -1.56611e-007 -2.35273e-006 -3.4052 -1.454 2.7682 -8.7935e-007 -2.23018e-006 -2.44402e-006 -1.4531 -1.795 1.2713 8.32231e-007 2.06321e-006 -6.23956e-007 -5.6954 0.21 2.1184 -5.08241e-007 -1.56611e-007 -2.35273e-006 -3.9766 -1.54 2.3863 -8.7935e-007 -2.23018e-006 -2.44402e-006 -1.4042 -1.926 1.125 8.32231e-007 2.06321e-006 -6.23956e-007 -2.0956 0.66 -0.3894 -6.62086e-032 -3.18055e-015 -1.19271e-015 -5.0395 -0.09 2.4971 -5.08241e-007 -1.56611e-007 -2.35273e-006 -3.7921 -1.552 1.4806 -8.7935e-007 -2.23018e-006 -2.44402e-006 -1.4655 -1.808 0.9609 8.32231e-007 2.06321e-006 -6.23956e-007 -4.9141 -1.269 0.3592 -5.08241e-007 -1.56611e-007 -2.35273e-006 -3.1477 -1.685 0.8462 -8.7935e-007 -2.23018e-006 -2.44402e-006 -0.8055 -1.585 0.7955 8.32231e-007 2.06321e-006 -6.23956e-007 8.367 -8.2066 0.5982 126.452 -51.63 135.499 2.1923 -43.463 -0.4932 80.5492 75.0024 -76.6994 0.7333 -45.8593 -2.6451 8.78609 38.3472 -0.694262 -8.367 -8.2066 0.5982 -126.449 -51.6246 -135.496 -2.1923 -43.463 -0.4931 -80.5481 75.0022 76.6933 -0.7333 -45.8593 -2.6451 -8.78912 38.3469 0.691791 
-0.0160941 79.2696 -50.1964 -0 -69.0033 -0 0 -1.186 -1.5018 -0.37039 16.8612 -0.0291966 0 9.964 0.2134 -0.786385 33.7222 0.0663764 0 13.134 -3.2573 -0.786386 33.7223 0.0663764 -8.88178e-016 20.686 -1.6905 -4.06043e-006 -1.57352 -3.43386e-007 4.44089e-016 7.238 -0.1237 1.11069e-007 -1.42894 -2.73214e-007 1.7069 20.075 5.0056 -8.14879 -0.174714 0.111211 13.6458 -0.047 -4.849 7.06829 47.2838 -1.95975 28.3255 -0.9759 2.2888 0.0794886 0.658846 7.78172 22.1583 -0.53 10.8316 -6.31028 2.89649 0.0821268 0.786 0.112 2.5817 4.62959e-007 2.97664e-008 -7.15173e-007 0.3601 -0.878 4.2331 -4.14696e-008 1.83946e-007 -3.07144e-006 1.8127 -1.216 2.2227 4.62959e-007 2.97664e-008 -7.15173e-007 0.9571 1.114 1.7695 -7.95139e-016 0 -0 4.1246 0.487 4.1451 4.62959e-007 2.97664e-008 -7.15173e-007 3.4052 -1.454 2.7682 -4.14696e-008 1.83946e-007 -3.07144e-006 1.4531 -1.795 1.2713 4.62959e-007 2.97665e-008 -7.15173e-007 5.6954 0.21 2.1184 4.62959e-007 2.97664e-008 -7.15173e-007 3.9766 -1.54 2.3863 -4.14696e-008 1.83946e-007 -3.07144e-006 1.4042 -1.926 1.125 4.62959e-007 2.97665e-008 -7.15173e-007 2.0956 0.66 -0.3894 -7.95139e-016 0 -0 5.0395 -0.09 2.4971 4.62959e-007 2.97664e-008 -7.15173e-007 3.7921 -1.552 1.4806 -4.14696e-008 1.83946e-007 -3.07144e-006 1.4655 -1.808 0.9609 4.62959e-007 2.97665e-008 -7.15173e-007 4.9141 -1.269 0.3591 4.62959e-007 2.97664e-008 -7.15173e-007 3.1477 -1.685 0.8462 -4.14696e-008 1.83946e-007 -3.07144e-006 0.8055 -1.585 0.7955 4.62959e-007 2.97665e-008 -7.15173e-007 -1.7069 20.075 5.0056 8.16067 -0.175183 -0.102529 -13.6458 -0.047 -4.849 -6.75886 47.292 2.46121 -28.3255 -0.9759 2.2888 -1.8758 0.750321 -8.85205 -22.1583 -0.53 10.8316 6.21069 2.90513 -0.0365546 -0.786 0.112 2.5817 -4.36809e-008 1.68947e-006 5.44746e-007 -0.3601 -0.878 4.2331 -5.40507e-007 -3.67792e-006 1.25577e-006 -1.8127 -1.216 2.2227 -4.60982e-007 9.94064e-009 7.15376e-007 -0.9571 1.114 1.7695 3.18055e-015 0 3.97569e-016 -4.1246 0.487 4.1451 -4.36809e-008 1.68947e-006 5.44746e-007 -3.4052 -1.454 2.7682 -5.40507e-007 -3.67792e-006 1.25577e-006 -1.4531 -1.795 1.2713 -4.60982e-007 9.94064e-009 7.15376e-007 -5.6954 0.21 2.1184 -4.36809e-008 1.68947e-006 5.44746e-007 -3.9766 -1.54 2.3863 -5.40507e-007 -3.67792e-006 1.25577e-006 -1.4042 -1.926 1.125 -4.60982e-007 9.94064e-009 7.15376e-007 -2.0956 0.66 -0.3894 3.18055e-015 0 3.97569e-016 -5.0395 -0.09 2.4971 -4.36809e-008 1.68947e-006 5.44746e-007 -3.7921 -1.552 1.4806 -5.40507e-007 -3.67792e-006 1.25577e-006 -1.4655 -1.808 0.9609 -4.60982e-007 9.94064e-009 7.15376e-007 -4.9141 -1.269 0.3592 -4.36809e-008 1.68947e-006 5.44746e-007 -3.1477 -1.685 0.8462 -5.40507e-007 -3.67792e-006 1.25577e-006 -0.8055 -1.585 0.7955 -4.60982e-007 9.94064e-009 7.15376e-007 8.367 -8.2066 0.5982 126.613 -51.7889 135.64 2.1923 -43.463 -0.4932 80.4457 74.9984 -76.6121 0.7333 -45.8593 -2.6451 8.64763 38.2703 -0.441552 -8.367 -8.2066 0.5982 -127.006 -51.8441 -136.105 -2.1923 -43.463 -0.4931 -82.1816 75.0193 78.2567 -0.7333 -45.8593 -2.6451 -8.59502 38.157 0.202317 
-0.0322779 79.2643 -50.192 -0 -69.0033 -0 0 -1.186 -1.5018 -0.371491 16.7844 -0.02742 0 9.964 0.2134 -0.788841 33.5686 0.0698211 2.22045e-016 13.134 -3.2573 -0.788841 33.5685 0.0698206 0 20.686 -1.6905 2.92677e-005 -2.35889 -5.96163e-007 0 7.238 -0.1237 1.41284e-009 -2.14302 1.36088e-007 1.7069 20.075 5.0056 -8.29495 -0.155282 0.223804 13.6458 -0.047 -4.849 7.06828 47.2838 -1.95974 28.3255 -0.9759 2.2888 0.079487 0.658841 7.78171 22.1583 -0.53 10.8316 -6.10858 3.22222 0.135823 0.786 0.112 2.5817 9.67393e-007 -1.24267e-007 1.6411e-006 0.3601 -0.878 4.2331 2.02032e-006 -5.94003e-006 2.32774e-006 1.8127 -1.216 2.2227 7.95139e-016 0 -3.97569e-016 0.9571 1.114 1.7695 0 3.18055e-015 -0 4.1246 0.487 4.1451 9.67393e-007 -1.24267e-007 1.6411e-006 3.4052 -1.454 2.7682 2.02032e-006 -5.94003e-006 2.32774e-006 1.4531 -1.795 1.2713 -2.20695e-032 -3.18055e-015 -3.97569e-016 5.6954 0.21 2.1184 9.67393e-007 -1.24267e-007 1.6411e-006 3.9766 -1.54 2.3863 2.02032e-006 -5.94003e-006 2.32774e-006 1.4042 -1.926 1.125 -2.20695e-032 -3.18055e-015 -3.97569e-016 2.0956 0.66 -0.3894 0 3.18055e-015 -0 5.0395 -0.09 2.4971 9.67393e-007 -1.24267e-007 1.6411e-006 3.7921 -1.552 1.4806 2.02032e-006 -5.94003e-006 2.32774e-006 1.4655 -1.808 0.9609 -2.20695e-032 -3.18055e-015 -3.97569e-016 4.9141 -1.269 0.3591 9.67393e-007 -1.24267e-007 1.6411e-006 3.1477 -1.685 0.8462 2.02032e-006 -5.94003e-006 2.32774e-006 0.8055 -1.585 0.7955 -2.20695e-032 -3.18055e-015 -3.97569e-016 -1.7069 20.075 5.0056 8.32223 -0.155978 -0.202951 -13.6458 -0.047 -4.849 -6.75886 47.292 2.46122 -28.3255 -0.9759 2.2888 -1.87581 0.750313 -8.85205 -22.1583 -0.53 10.8316 5.92934 3.20186 -0.0970777 -0.786 0.112 2.5817 -4.60839e-007 9.52098e-009 7.15512e-007 -0.3601 -0.878 4.2331 -4.60839e-007 9.52099e-009 7.15512e-007 -1.8127 -1.216 2.2227 -4.60839e-007 9.52098e-009 7.15512e-007 -0.9571 1.114 1.7695 1.59028e-015 -3.18055e-015 -1.19271e-015 -4.1246 0.487 4.1451 -4.60839e-007 9.52098e-009 7.15512e-007 -3.4052 -1.454 2.7682 -4.60839e-007 9.52099e-009 7.15512e-007 -1.4531 -1.795 1.2713 -4.60839e-007 9.52097e-009 7.15512e-007 -5.6954 0.21 2.1184 -4.60839e-007 9.52098e-009 7.15512e-007 -3.9766 -1.54 2.3863 -4.60839e-007 9.52099e-009 7.15512e-007 -1.4042 -1.926 1.125 -4.60839e-007 9.52097e-009 7.15512e-007 -2.0956 0.66 -0.3894 1.59028e-015 -3.18055e-015 -1.19271e-015 -5.0395 -0.09 2.4971 -4.60839e-007 9.52098e-009 7.15512e-007 -3.7921 -1.552 1.4806 -4.60839e-007 9.52099e-009 7.15512e-007 -1.4655 -1.808 0.9609 -4.60839e-007 9.52097e-009 7.15512e-007 -4.9141 -1.269 0.3592 -4.60839e-007 9.52098e-009 7.15512e-007 -3.1477 -1.685 0.8462 -4.60839e-007 9.52099e-009 7.15512e-007 -0.8055 -1.585 0.7955 -4.60839e-007 9.52097e-009 7.15512e-007 8.367 -8.2066 0.5982 126.774 -51.9475 135.783 2.1923 -43.463 -0.4932 80.3431 74.9946 -76.5258 0.7333 -45.8593 -2.6451 8.50974 38.1927 -0.189319 -8.367 -8.2066 0.5982 -127.57 -52.0601 -136.721 -2.1923 -43.463 -0.4931 -83.8174 75.0248 79.8223 -0.7333 -45.8593 -2.6451 -8.40384 37.966 -0.28506 
